# xmcd
#
# Track frame offsets: 
#        150
#        22583
#        36944
#        51765
#        77011
#        94949
#        115020
#        128023
#        146410
#        163792
#        179659
#        201300
#        221742
#        238453
#
# Disc length: 3383 seconds
#
# Revision: 0
# Processed by: cddbd v1.5.2PL0 Copyright (c) Steve Scherf et al.
# Submitted via: ExactAudioCopyFreeDBPlugin 1.0
#
DISCID=c50d350e
DTITLE=พงษ์เทพ กระโดนชำนาญ - เหงา เศร้า ฝัน
DYEAR=1900
DGENRE=Thai Country
TTITLE0=ขอบฟ้า(ตรงเส้นขอบฟ้า)
TTITLE1=ยิ้มเหงาๆ เศร้างามๆ
TTITLE2=ดาวน์สาว
TTITLE3=ลิงทะโมน
TTITLE4=วันเวลา
TTITLE5=เฉย
TTITLE6=ฟ้าสาง
TTITLE7=ด ญ ปรางค์
TTITLE8=เขาใหญ่
TTITLE9=แม่
TTITLE10=นกเขาไฟ
TTITLE11=เลบานอน
TTITLE12=เพียงลมพัดผ่าน
TTITLE13=นกละเมอ
EXTD=
EXTT0=
EXTT1=
EXTT2=
EXTT3=
EXTT4=
EXTT5=
EXTT6=
EXTT7=
EXTT8=
EXTT9=
EXTT10=
EXTT11=
EXTT12=
EXTT13=
PLAYORDER=
